<svg id="Layer_1" data-name="Layer 1" xmlns="http://www.w3.org/2000/svg" viewBox="0 0 2943.62 986.64"><defs><style>.cls-1{fill:#e05c5c;}.cls-2{fill:#5accc1;}.cls-3{fill:#4fdb6a;}.cls-4{fill:#cf59d8;}.cls-5{fill:#e2e249;}.cls-6{fill:#e2a452;}.cls-7{fill:#ea71b3;}.cls-13,.cls-8{font-size:500px;}.cls-8{font-family:Times-Roman, Times;}.cls-12,.cls-9{font-size:700px;}.cls-9{fill:#fff;font-family:Phosphate-Inline, Phosphate;}.cls-10{font-size:531px;font-family:HanziPenSC-W3-GBpc-EUC-H, HanziPen SC;}.cls-11{font-size:460px;}.cls-11,.cls-12{font-family:BrushScriptMT, Brush Script MT;}.cls-12{letter-spacing:0em;}.cls-13{font-family:MyriadPro-Regular, Myriad Pro;}.cls-14{font-size:592px;font-family:JCHEadA, HeadLineA;}</style></defs><title>deposit_typography</title><polygon class="cls-1" points="0 220 110.84 779 433.5 723 397.28 123 0 220"/><polygon class="cls-2" points="871 75 972 686 1169 660 1147 403 1307 224 1259 23 871 75"/><polygon class="cls-3" points="1772.28 30.63 1715.6 753.66 2004.92 805.98 2173.97 48.71 1772.28 30.63"/><polygon class="cls-4" points="1342.86 36.32 1328.8 631.19 1641.35 652.09 1725.74 58.79 1342.86 36.32"/><polygon class="cls-5" points="2209 186.5 2119 778.5 2350 778.5 2562 208.5 2209 186.5"/><polygon class="cls-6" points="365 0 839 49 886 764 566 779 365 0"/><polygon class="cls-7" points="2617.48 203.01 2382.38 852.51 2727.76 950.45 2943.62 295.49 2617.48 203.01"/><text class="cls-8" transform="matrix(0.98, -0.21, 0.21, 0.98, 103.3, 660.2)">D</text><text class="cls-9" transform="matrix(0.98, -0.21, 0.21, 0.98, 542.21, 642.07)">E</text><text class="cls-10" transform="translate(983.42 544.97) rotate(-7.38)">P</text><text class="cls-11" transform="matrix(1, 0.03, -0.03, 1, 1380.49, 449.49)">O</text><text class="cls-12" transform="translate(1748.33 574.81) rotate(-0.48)">$</text><text class="cls-13" transform="translate(2203.46 657.19) rotate(12.06)">I</text><text class="cls-14" transform="translate(2493.58 750.36) rotate(16.47)">T</text></svg>